nColumns=19
nRows=58
DataType=double
version=3
OpenSimVersion=4.1
endheader
time	ground_force_calcn_l_vx	ground_force_calcn_l_vy	ground_force_calcn_l_vz	ground_force_calcn_l_px	ground_force_calcn_l_py	ground_force_calcn_l_pz	ground_force_calcn_l_mx	ground_force_calcn_l_my	ground_force_calcn_l_mz	ground_force_calcn_r_vx	ground_force_calcn_r_vy	ground_force_calcn_r_vz	ground_force_calcn_r_px	ground_force_calcn_r_py	ground_force_calcn_r_pz	ground_force_calcn_r_mx	ground_force_calcn_r_my	ground_force_calcn_r_mz
0.3815	0	0	0	0	0	0	0	0	0	-16.5534	86.5666	-2.83667	-0.115199	0	0.0214279	-0.376825	1.97061	-0.0645743
0.382499	0	0	0	0	0	0	0	0	0	-17.6097	92.714	-3.04715	-0.112429	0	0.0227614	-0.39488	2.07902	-0.0683294
0.383497	0	0	0	0	0	0	0	0	0	-18.6884	99.0659	-3.26533	-0.109659	0	0.024086	-0.412721	2.1878	-0.0721125
0.384496	0	0	0	0	0	0	0	0	0	-19.7886	105.621	-3.49118	-0.106889	0	0.0254013	-0.430303	2.29673	-0.0759158
0.385495	0	0	0	0	0	0	0	0	0	-20.9092	112.378	-3.72468	-0.10412	0	0.0267067	-0.447587	2.40559	-0.0797314
0.386493	0	0	0	0	0	0	0	0	0	-22.0492	119.336	-3.9658	-0.101351	0	0.0280015	-0.464534	2.51418	-0.0835515
0.387492	0	0	0	0	0	0	0	0	0	-23.2076	126.493	-4.21449	-0.0985821	0	0.0292852	-0.481105	2.62226	-0.0873685
0.388491	0	0	0	0	0	0	0	0	0	-24.3833	133.847	-4.47072	-0.0958146	0	0.0305571	-0.497267	2.72965	-0.0911747
0.389489	0	0	0	0	0	0	0	0	0	-25.5754	141.397	-4.73445	-0.0930485	0	0.0318167	-0.512987	2.83612	-0.0949627
0.390488	0	0	0	0	0	0	0	0	0	-26.7827	149.141	-5.00562	-0.090284	0	0.0330633	-0.528232	2.94149	-0.0987252
0.391487	0	0	0	0	0	0	0	0	0	-28.0044	157.077	-5.28421	-0.0875216	0	0.0342964	-0.542974	3.04555	-0.102455
0.392486	0	0	0	0	0	0	0	0	0	-29.2393	165.202	-5.57015	-0.0847618	0	0.0355153	-0.557187	3.14811	-0.106145
0.393484	0	0	0	0	0	0	0	0	0	-30.4865	173.515	-5.8634	-0.082005	0	0.0367196	-0.570846	3.24898	-0.10979
0.394483	0	0	0	0	0	0	0	0	0	-31.745	182.012	-6.16392	-0.0792518	0	0.0379086	-0.583929	3.34799	-0.113381
0.395482	0	0	0	0	0	0	0	0	0	-33.0139	190.692	-6.47166	-0.0765028	0	0.0390818	-0.596415	3.44496	-0.116914
0.39648	0	0	0	0	0	0	0	0	0	-34.2922	199.552	-6.78658	-0.0737586	0	0.0402386	-0.608287	3.53972	-0.120383
0.397479	0	0	0	0	0	0	0	0	0	-35.579	208.589	-7.10863	-0.0710198	0	0.0413785	-0.619528	3.63211	-0.123781
0.398478	0	0	0	0	0	0	0	0	0	-36.8733	217.8	-7.43778	-0.0682872	0	0.0425011	-0.630127	3.72197	-0.127104
0.399476	0	0	0	0	0	0	0	0	0	-38.1744	227.182	-7.774	-0.0655615	0	0.0436058	-0.64007	3.80916	-0.130347
0.400475	0	0	0	0	0	0	0	0	0	-39.4812	236.732	-8.11725	-0.0628436	0	0.0446922	-0.649349	3.89354	-0.133505
0.401474	0	0	0	0	0	0	0	0	0	-40.7929	246.446	-8.46753	-0.0601342	0	0.0457599	-0.657956	3.97498	-0.136574
0.402472	0	0	0	0	0	0	0	0	0	-42.1088	256.322	-8.8248	-0.0574342	0	0.0468083	-0.665887	4.05334	-0.139551
0.403471	0	0	0	0	0	0	0	0	0	-43.428	266.354	-9.18906	-0.0547444	0	0.0478373	-0.673138	4.12852	-0.142431
0.40447	0	0	0	0	0	0	0	0	0	-44.7497	276.541	-9.56032	-0.0520658	0	0.0488464	-0.679707	4.2004	-0.145212
0.405468	0	0	0	0	0	0	0	0	0	-46.0732	286.877	-9.93857	-0.0493993	0	0.0498352	-0.685595	4.26888	-0.147891
0.406467	0	0	0	0	0	0	0	0	0	-47.3977	297.358	-10.3238	-0.0467458	0	0.0508035	-0.690803	4.33387	-0.150466
0.407466	0	0	0	0	0	0	0	0	0	-48.7226	307.982	-10.7162	-0.0441062	0	0.051751	-0.695334	4.39529	-0.152933
0.408464	0	0	0	0	0	0	0	0	0	-50.0471	318.742	-11.1155	-0.0414816	0	0.0526775	-0.699192	4.45304	-0.155292
0.409463	0	0	0	0	0	0	0	0	0	-51.3706	329.636	-11.5221	-0.0388729	0	0.0535828	-0.702384	4.50707	-0.15754
0.410462	0	0	0	0	0	0	0	0	0	-52.6925	340.658	-11.9357	-0.0362811	0	0.0544667	-0.704916	4.55729	-0.159675
0.411461	0	0	0	0	0	0	0	0	0	-54.012	351.803	-12.3567	-0.0337071	0	0.0553289	-0.706794	4.60365	-0.161698
0.412459	0	0	0	0	0	0	0	0	0	-55.3287	363.068	-12.785	-0.0311519	0	0.0561695	-0.708028	4.64609	-0.163606
0.413458	0	0	0	0	0	0	0	0	0	-56.6419	374.446	-13.2206	-0.0286166	0	0.0569884	-0.708626	4.68456	-0.165399
0.414457	0	0	0	0	0	0	0	0	0	-57.9511	385.934	-13.6638	-0.026102	0	0.0577854	-0.708598	4.71901	-0.167075
0.415455	0	0	0	0	0	0	0	0	0	-59.2557	397.526	-14.1147	-0.0236092	0	0.0585606	-0.707952	4.7494	-0.168634
0.416454	0	0	0	0	0	0	0	0	0	-60.5551	409.216	-14.5733	-0.0211391	0	0.0593139	-0.706699	4.77569	-0.170075
0.417453	0	0	0	0	0	0	0	0	0	-61.849	421.001	-15.0397	-0.0186926	0	0.0600454	-0.704848	4.79784	-0.171397
0.418451	0	0	0	0	0	0	0	0	0	-63.1366	432.873	-15.5142	-0.0162707	0	0.0607551	-0.702409	4.81581	-0.172599
0.41945	0	0	0	0	0	0	0	0	0	-64.4175	444.829	-15.9968	-0.0138743	0	0.0614432	-0.699392	4.82958	-0.17368
0.420449	0	0	0	0	0	0	0	0	0	-65.6913	456.862	-16.4877	-0.0115043	0	0.0621097	-0.695806	4.8391	-0.174639
0.421447	0	0	0	0	0	0	0	0	0	-66.9573	468.966	-16.9871	-0.00916158	0	0.0627548	-0.69166	4.84436	-0.175475
0.422446	0	0	0	0	0	0	0	0	0	-68.2151	481.137	-17.4952	-0.00684693	0	0.0633786	-0.686964	4.84532	-0.176186
0.423445	0	0	0	0	0	0	0	0	0	-69.4642	493.369	-18.0121	-0.0045612	0	0.0639814	-0.681726	4.84195	-0.176772
0.424443	0	0	0	0	0	0	0	0	0	-70.704	505.655	-18.5379	-0.0023052	0	0.0645632	-0.675955	4.83424	-0.177229
0.425442	0	0	0	0	0	0	0	0	0	-71.934	517.99	-19.0729	-7.96778e-05	0	0.0651245	-0.669658	4.82214	-0.177556
0.426441	0	0	0	0	0	0	0	0	0	-73.1537	530.368	-19.6173	0.00211461	0	0.0656653	-0.662843	4.80565	-0.177751
0.427439	0	0	0	0	0	0	0	0	0	-74.3625	542.784	-20.1711	0.00427697	0	0.066186	-0.655518	4.78474	-0.177812
0.428438	0	0	0	0	0	0	0	0	0	-75.5598	555.232	-20.7346	0.00640672	0	0.0666868	-0.64769	4.75938	-0.177735
0.429437	0	0	0	0	0	0	0	0	0	-76.7451	567.705	-21.308	0.00850321	0	0.0671681	-0.639365	4.72957	-0.177518
0.430436	0	0	0	0	0	0	0	0	0	-77.9177	580.198	-21.8914	0.0105658	0	0.0676301	-0.630552	4.69528	-0.177157
0.431434	0	0	0	0	0	0	0	0	0	-79.077	592.706	-22.4849	0.0125941	0	0.0680732	-0.621257	4.65651	-0.176649
0.432433	0	0	0	0	0	0	0	0	0	-80.2224	605.221	-23.0887	0.0145873	0	0.0684978	-0.611487	4.61324	-0.175992
0.433432	0	0	0	0	0	0	0	0	0	-81.3531	617.739	-23.703	0.0165451	0	0.0689041	-0.601249	4.56546	-0.17518
0.43443	0	0	0	0	0	0	0	0	0	-82.4686	630.253	-24.3278	0.0184669	0	0.0692926	-0.590551	4.51319	-0.174209
0.435429	0	0	0	0	0	0	0	0	0	-83.568	642.759	-24.9633	0.0203524	0	0.0696636	-0.5794	4.45642	-0.173077
0.436428	0	0	0	0	0	0	0	0	0	-84.6506	655.25	-25.6095	0.0222012	0	0.0700175	-0.567804	4.39517	-0.171779
0.437426	0	0	0	0	0	0	0	0	0	-85.7157	667.72	-26.2666	0.0240128	0	0.0703546	-0.555773	4.32944	-0.17031
0.438425	0	0	0	0	0	0	0	0	0	-86.7624	680.164	-26.9345	0.0257871	0	0.0706755	-0.543316	4.25926	-0.168667
